<svg width="512" height="512" viewBox="0 0 512 512" fill="none" xmlns="http://www.w3.org/2000/svg">
  <!-- Bucket body -->
  <path d="M96 160C96 146.745 106.745 136 120 136H392C405.255 136 416 146.745 416 160V400C416 413.255 405.255 424 392 424H120C106.745 424 96 413.255 96 400V160Z" fill="#3B82F6"/>
  
  <!-- Bucket handle -->
  <path d="M176 120C176 106.745 186.745 96 200 96H312C325.255 96 336 106.745 336 120V136H176V120Z" fill="#60A5FA"/>
  
  <!-- Link chain elements -->
  <path d="M208 232C208 218.745 218.745 208 232 208H280C293.255 208 304 218.745 304 232V280C304 293.255 293.255 304 280 304H232C218.745 304 208 293.255 208 280V232Z" fill="white"/>
  
  <path d="M256 304C256 290.745 266.745 280 280 280H328C341.255 280 352 290.745 352 304V352C352 365.255 341.255 376 328 376H280C266.745 376 256 365.255 256 352V304Z" fill="white"/>
  
  <!-- Shine effect -->
  <path d="M120 136H160L144 424H120C106.745 424 96 413.255 96 400V160C96 146.745 106.745 136 120 136Z" fill="#2563EB" fillOpacity="0.3"/>
</svg>